<mxfile host="app.diagrams.net" modified="2021-08-28T17:42:42.168Z" agent="5.0 (Windows NT 10.0; Win64; x64) AppleWebKit/537.36 (KHTML, like Gecko) Chrome/92.0.4515.159 Safari/537.36" etag="ctLOrKMCVcCK6anPE4Q_" version="15.0.3" type="github">
  <diagram name="Page-1" id="c4acf3e9-155e-7222-9cf6-157b1a14988f">
    <mxGraphModel dx="1038" dy="617" grid="1" gridSize="10" guides="1" tooltips="1" connect="1" arrows="1" fold="1" page="1" pageScale="1" pageWidth="850" pageHeight="1100" background="none" math="0" shadow="0">
      <root>
        <mxCell id="0" />
        <mxCell id="1" parent="0" />
        <mxCell id="gDdEAOaWjeSAuT9VlWvJ-1" value="&lt;p style=&quot;margin: 0px ; margin-top: 4px ; text-align: center&quot;&gt;&lt;b&gt;Uygulama&amp;nbsp;&lt;/b&gt;&lt;/p&gt;&lt;hr size=&quot;1&quot;&gt;&lt;p style=&quot;margin: 0px ; margin-left: 4px&quot;&gt;+ field1: Type&lt;br&gt;+ field2: Type&lt;/p&gt;&lt;hr size=&quot;1&quot;&gt;&lt;p style=&quot;margin: 0px ; margin-left: 4px&quot;&gt;+ method1(Type): Type&lt;br&gt;+ method2(Type, Type): Type&lt;/p&gt;" style="verticalAlign=top;align=left;overflow=fill;fontSize=12;fontFamily=Helvetica;html=1;" parent="1" vertex="1">
          <mxGeometry x="70" y="260" width="190" height="140" as="geometry" />
        </mxCell>
        <mxCell id="gDdEAOaWjeSAuT9VlWvJ-2" value="&lt;p style=&quot;margin: 0px ; margin-top: 4px ; text-align: center&quot;&gt;&lt;b&gt;Filmler&lt;/b&gt;&lt;/p&gt;&lt;hr size=&quot;1&quot;&gt;&lt;p style=&quot;margin: 0px ; margin-left: 4px&quot;&gt;+ field1: Type&lt;br&gt;+ field2: Type&lt;/p&gt;&lt;hr size=&quot;1&quot;&gt;&lt;p style=&quot;margin: 0px ; margin-left: 4px&quot;&gt;+ listele()&lt;/p&gt;&lt;p style=&quot;margin: 0px ; margin-left: 4px&quot;&gt;+ sırala()&lt;/p&gt;&lt;p style=&quot;margin: 0px ; margin-left: 4px&quot;&gt;+ film talap et()&lt;/p&gt;" style="verticalAlign=top;align=left;overflow=fill;fontSize=12;fontFamily=Helvetica;html=1;" parent="1" vertex="1">
          <mxGeometry x="60" y="490" width="190" height="140" as="geometry" />
        </mxCell>
        <mxCell id="gDdEAOaWjeSAuT9VlWvJ-5" style="edgeStyle=orthogonalEdgeStyle;rounded=0;orthogonalLoop=1;jettySize=auto;html=1;endArrow=diamondThin;endFill=0;strokeWidth=2;endSize=25;" parent="1" source="gDdEAOaWjeSAuT9VlWvJ-3" edge="1">
          <mxGeometry relative="1" as="geometry">
            <mxPoint x="263" y="331" as="targetPoint" />
            <Array as="points">
              <mxPoint x="263" y="331" />
            </Array>
          </mxGeometry>
        </mxCell>
        <mxCell id="gDdEAOaWjeSAuT9VlWvJ-8" value="satın al" style="edgeStyle=orthogonalEdgeStyle;rounded=0;orthogonalLoop=1;jettySize=auto;html=1;exitX=1;exitY=0.25;exitDx=0;exitDy=0;endArrow=diamondThin;endFill=0;strokeWidth=2;entryX=0;entryY=0.75;entryDx=0;entryDy=0;endSize=25;" parent="1" source="gDdEAOaWjeSAuT9VlWvJ-2" target="gDdEAOaWjeSAuT9VlWvJ-3" edge="1">
          <mxGeometry relative="1" as="geometry">
            <mxPoint x="280" y="530" as="sourcePoint" />
            <Array as="points">
              <mxPoint x="380" y="525" />
              <mxPoint x="380" y="365" />
            </Array>
          </mxGeometry>
        </mxCell>
        <mxCell id="Wc_kVDKE8TgmHwhR7bkm-1" style="edgeStyle=orthogonalEdgeStyle;rounded=0;orthogonalLoop=1;jettySize=auto;html=1;entryX=0.56;entryY=0.001;entryDx=0;entryDy=0;entryPerimeter=0;" edge="1" parent="1" source="gDdEAOaWjeSAuT9VlWvJ-3" target="gDdEAOaWjeSAuT9VlWvJ-4">
          <mxGeometry relative="1" as="geometry">
            <mxPoint x="595" y="470" as="targetPoint" />
          </mxGeometry>
        </mxCell>
        <mxCell id="gDdEAOaWjeSAuT9VlWvJ-3" value="&lt;p style=&quot;margin: 0px ; margin-top: 4px ; text-align: center&quot;&gt;&lt;b&gt;&amp;nbsp;Kullanıcılar&lt;/b&gt;&lt;/p&gt;&lt;hr size=&quot;1&quot;&gt;&lt;p style=&quot;margin: 0px ; margin-left: 4px&quot;&gt;+ field1: Type&lt;br&gt;+ field2: Type&lt;/p&gt;&lt;hr size=&quot;1&quot;&gt;&lt;p style=&quot;margin: 0px ; margin-left: 4px&quot;&gt;+ method1(Type): Type&lt;br&gt;+ method2(Type, Type): Type&lt;/p&gt;" style="verticalAlign=top;align=left;overflow=fill;fontSize=12;fontFamily=Helvetica;html=1;" parent="1" vertex="1">
          <mxGeometry x="500" y="260" width="190" height="140" as="geometry" />
        </mxCell>
        <mxCell id="gDdEAOaWjeSAuT9VlWvJ-9" value="satın al" style="edgeStyle=orthogonalEdgeStyle;rounded=0;orthogonalLoop=1;jettySize=auto;html=1;endArrow=diamondThin;endFill=0;strokeWidth=2;exitX=1.004;exitY=0.439;exitDx=0;exitDy=0;endSize=25;exitPerimeter=0;" parent="1" source="gDdEAOaWjeSAuT9VlWvJ-2" target="gDdEAOaWjeSAuT9VlWvJ-4" edge="1">
          <mxGeometry relative="1" as="geometry">
            <Array as="points">
              <mxPoint x="251" y="550" />
            </Array>
          </mxGeometry>
        </mxCell>
        <mxCell id="gDdEAOaWjeSAuT9VlWvJ-4" value="&lt;p style=&quot;margin: 0px ; margin-top: 4px ; text-align: center&quot;&gt;&lt;b&gt;Aboneler&lt;/b&gt;&lt;/p&gt;&lt;hr size=&quot;1&quot;&gt;&lt;p style=&quot;margin: 0px ; margin-left: 4px&quot;&gt;+ field1: Type&lt;br&gt;+ field2: Type&lt;/p&gt;&lt;hr size=&quot;1&quot;&gt;&lt;p style=&quot;margin: 0px ; margin-left: 4px&quot;&gt;+ film kiralama()&lt;br&gt;&lt;/p&gt;&lt;p style=&quot;margin: 0px ; margin-left: 4px&quot;&gt;&lt;br&gt;&lt;/p&gt;" style="verticalAlign=top;align=left;overflow=fill;fontSize=12;fontFamily=Helvetica;html=1;" parent="1" vertex="1">
          <mxGeometry x="490" y="480" width="190" height="140" as="geometry" />
        </mxCell>
        <mxCell id="gDdEAOaWjeSAuT9VlWvJ-6" value="abone olma" style="text;html=1;align=center;verticalAlign=middle;resizable=0;points=[];autosize=1;strokeColor=none;" parent="1" vertex="1">
          <mxGeometry x="340" y="310" width="80" height="20" as="geometry" />
        </mxCell>
        <mxCell id="gDdEAOaWjeSAuT9VlWvJ-12" value="" style="endArrow=diamondThin;endFill=0;endSize=24;html=1;strokeWidth=2;entryX=0.627;entryY=1.007;entryDx=0;entryDy=0;entryPerimeter=0;exitX=0.667;exitY=-0.024;exitDx=0;exitDy=0;exitPerimeter=0;" parent="1" source="gDdEAOaWjeSAuT9VlWvJ-2" target="gDdEAOaWjeSAuT9VlWvJ-1" edge="1">
          <mxGeometry width="160" relative="1" as="geometry">
            <mxPoint x="85" y="430" as="sourcePoint" />
            <mxPoint x="245" y="430" as="targetPoint" />
          </mxGeometry>
        </mxCell>
      </root>
    </mxGraphModel>
  </diagram>
</mxfile>
